<?xml version="1.0" standalone="no"?>
<!DOCTYPE svg PUBLIC "-//W3C//DTD SVG 20010904//EN"
 "http://www.w3.org/TR/2001/REC-SVG-20010904/DTD/svg10.dtd">
<svg version="1.0" xmlns="http://www.w3.org/2000/svg"
 width="45.000000pt" height="43.000000pt" viewBox="0 0 45.000000 43.000000"
 preserveAspectRatio="xMidYMid meet">

<g transform="translate(0.000000,43.000000) scale(0.100000,-0.100000)"
fill="#000000" stroke="none">
<path d="M0 218 l0 -211 165 208 c91 114 165 210 165 211 0 2 -74 4 -165 4
l-165 0 0 -212z"/>
<path d="M370 411 c-16 -31 4 -63 37 -59 34 4 52 32 37 56 -16 26 -60 28 -74
3z m60 -21 c0 -13 -7 -20 -19 -20 -22 0 -35 15 -26 30 12 19 45 11 45 -10z"/>
<path d="M360 330 c0 -5 20 -10 45 -10 25 0 45 5 45 10 0 6 -20 10 -45 10 -25
0 -45 -4 -45 -10z"/>
<path d="M376 294 c-9 -8 -16 -24 -16 -35 0 -16 7 -19 45 -19 40 0 45 2 45 23
0 44 -43 62 -74 31z m54 -19 c0 -9 -9 -15 -25 -15 -24 0 -32 10 -18 23 12 13
43 7 43 -8z"/>
<path d="M309 277 c-9 -12 -36 -46 -59 -74 l-42 -53 66 0 66 0 0 75 c0 41 -3
75 -7 75 -5 0 -15 -11 -24 -23z"/>
<path d="M366 211 c5 -5 23 -11 39 -13 41 -4 34 -22 -12 -29 -28 -4 -34 -7
-21 -13 40 -18 89 12 75 48 -5 11 -19 16 -49 16 -26 0 -38 -4 -32 -9z"/>
<path d="M360 110 c0 -16 5 -30 10 -30 6 0 10 5 10 10 0 6 16 10 35 10 19 0
35 5 35 10 0 6 -16 10 -35 10 -19 0 -35 5 -35 10 0 6 -4 10 -10 10 -5 0 -10
-13 -10 -30z"/>
<path d="M138 42 l-27 -38 112 2 112 3 0 36 1 35 -86 0 -85 0 -27 -38z"/>
<path d="M370 55 c-7 -8 -10 -22 -6 -30 8 -22 43 -18 49 6 3 13 10 18 17 14 9
-5 9 -10 1 -18 -17 -17 -13 -31 4 -17 20 17 15 54 -7 58 -12 2 -21 -6 -28 -22
-12 -33 -24 -34 -16 -1 7 29 4 31 -14 10z"/>
</g>
</svg>
